<svg width="80" height="78" viewBox="0 0 80 78" fill="none" xmlns="http://www.w3.org/2000/svg">
<path fill-rule="evenodd" clip-rule="evenodd" d="M38.9745 2.05161C59.3671 2.05161 75.8974 18.5823 75.8974 38.9744C75.8974 59.3665 59.3671 75.8972 38.9745 75.8972C18.5822 75.8972 2.05152 59.3665 2.05152 38.9744C2.05152 18.5823 18.5822 2.05161 38.9745 2.05161Z" fill="#AAAAAA"/>
<path fill-rule="evenodd" clip-rule="evenodd" d="M38.9745 2.05161C59.3671 2.05161 75.8974 18.5823 75.8974 38.9744C75.8974 59.3665 59.3671 75.8972 38.9745 75.8972C18.5822 75.8972 2.05152 59.3665 2.05152 38.9744C2.05152 18.5823 18.5822 2.05161 38.9745 2.05161Z" fill="url(#paint0_linear)"/>
<path fill-rule="evenodd" clip-rule="evenodd" d="M41.0253 28.718C41.0253 27.5862 40.1072 26.6667 38.9736 26.6667C37.8412 26.6667 36.9228 27.5862 36.9228 28.718V36.9233H28.7181C27.5849 36.9233 26.6665 37.8419 26.6665 38.9746C26.6665 40.1082 27.5849 41.0259 28.7181 41.0259H36.9228V49.2312C36.9228 50.3639 37.8412 51.2825 38.9736 51.2825C40.1072 51.2825 41.0253 50.3639 41.0253 49.2312V41.0259H49.2307C50.3639 41.0259 51.2819 40.1082 51.2819 38.9746C51.2819 37.8419 50.3639 36.9233 49.2307 36.9233H41.0253V28.718Z" fill="white"/>
<defs>
<linearGradient id="paint0_linear" x1="62.3167" y1="102.921" x2="111.568" y2="11.9384" gradientUnits="userSpaceOnUse">
<stop stop-color="#D36221"/>
<stop offset="0.645787" stop-color="#F2AD3C"/>
<stop offset="1" stop-color="#F7E7AC"/>
</linearGradient>
</defs>
</svg>
