<svg width="24" height="26" viewBox="0 0 24 26" fill="none" xmlns="http://www.w3.org/2000/svg">
<path fill-rule="evenodd" clip-rule="evenodd" d="M11.9 0C5.355 0 0 5.83137 0 12.9586C0 20.0858 5.355 25.9172 11.9 25.9172C18.445 25.9172 23.8 20.0858 23.8 12.9586C23.8 5.83137 18.445 0 11.9 0ZM11.9 23.3255C6.66403 23.3255 2.38003 18.6604 2.38003 12.9586C2.38003 7.25682 6.66403 2.59172 11.9 2.59172C17.136 2.59172 21.42 7.25682 21.42 12.9586C21.42 18.6604 17.136 23.3255 11.9 23.3255Z" fill="#757575"/>
<path fill-rule="evenodd" clip-rule="evenodd" d="M13.09 11.6625V7.7749H10.71V11.6625H7.14001V14.2542H10.71V18.1418H13.09V14.2542H16.66V11.6625H13.09Z" fill="#757575"/>
</svg>
